<?xml version="1.0"?>
<svg xmlns="http://www.w3.org/2000/svg" viewBox="0 0 64 64" width="512" height="512"><path d="m37 30-7-11 1.266-6.963a19.988 19.988 0 1 0 13.217 35.575l-11.483-8.612z" fill="#ffd782"/><path d="m45 7.89a19.894 19.894 0 0 0 -8.235-1.79c-.248 0-.489.028-.734.037l-1.266 6.963 1.208 1.9 5.792-1.287z" fill="#ffd782"/><path d="m46.235 12.177-3.235 5.823-5.792 1.287 5.792 9.101-4 9 11.483 8.612a19.974 19.974 0 0 0 -4.248-33.823z" fill="#ffd782"/><path d="m7 17a1 1 0 0 1 -1-1 3 3 0 0 0 -3-3 1 1 0 0 1 0-2 3 3 0 0 0 3-3 1 1 0 0 1 2 0 3 3 0 0 0 3 3 1 1 0 0 1 0 2 3 3 0 0 0 -3 3 1 1 0 0 1 -1 1zm-1-5a5.07 5.07 0 0 1 1 1 5.07 5.07 0 0 1 1-1 5.07 5.07 0 0 1 -1-1 5.07 5.07 0 0 1 -1 1z" fill="#fcf05a"/><path d="m16 2h2v2h-2z" fill="#7fcac9"/><path d="m16 6h2v2h-2z" fill="#7fcac9"/><path d="m14 4h2v2h-2z" fill="#7fcac9"/><path d="m18 4h2v2h-2z" fill="#7fcac9"/><path d="m57 57a1 1 0 0 1 -1-1 3 3 0 0 0 -3-3 1 1 0 0 1 0-2 3 3 0 0 0 3-3 1 1 0 0 1 2 0 3 3 0 0 0 3 3 1 1 0 0 1 0 2 3 3 0 0 0 -3 3 1 1 0 0 1 -1 1zm-1-5a5.07 5.07 0 0 1 1 1 5.07 5.07 0 0 1 1-1 5.07 5.07 0 0 1 -1-1 5.07 5.07 0 0 1 -1 1z" fill="#fcf05a"/><g fill="#7fcac9"><path d="m46 60h2v2h-2z"/><path d="m46 56h2v2h-2z"/><path d="m48 58h2v2h-2z"/><path d="m44 58h2v2h-2z"/><path d="m8 52h2v2h-2z"/><path d="m12 54h2v2h-2z"/><path d="m52 4h2v2h-2z"/><path d="m56 6h2v2h-2z"/></g><circle cx="24" cy="28" fill="#fdbd40" r="5"/><circle cx="26" cy="44" fill="#fdbd40" r="3"/><path d="m57.79 27.5a5.5 5.5 0 1 0 -1.26 10.4 19.875 19.875 0 0 0 1.47-7.512 20.163 20.163 0 0 0 -.21-2.888z" fill="#fdbd40"/><path d="m31 8a1 1 0 0 1 -.949-.684l-1-3a1 1 0 0 1 1.9-.632l1 3a1 1 0 0 1 -.951 1.316z" fill="#e9686a"/><path d="m28 10a1 1 0 0 1 -.554-.168l-3-2a1 1 0 0 1 1.11-1.664l3 2a1 1 0 0 1 -.556 1.832z" fill="#e9686a"/></svg>
